<svg xmlns="http://www.w3.org/2000/svg" width="27" height="26" viewBox="0 0 27 26" fill="none">
<path d="M9.25476 19.8689C4.40924 13.5457 3.52275 12.5714 2.71516 11.4857C2.71516 11.4857 6.28664 10.6045 9.03197 13.816C9.33366 14.1385 11.9305 17.2592 13.2115 18.7038C17.9734 24.0662 21.0181 23.4825 23.3922 20.6162C23.0185 20.732 22.6426 20.8047 22.255 20.8274C20.0017 20.9637 17.6416 19.6123 14.945 16.5892L12.4108 13.7502C8.99252 9.91856 6.66259 7.82673 6.66259 7.82673C6.68812 7.80402 10.8398 6.50032 13.8775 9.64146C16.523 12.3738 18.535 14.4815 18.535 14.4815C20.8232 16.7777 22.5266 17.7862 23.8818 17.4841C24.8727 17.2615 25.4993 16.3462 25.917 15.4195C25.555 15.5967 25.1675 15.7034 24.7428 15.7125C23.7403 15.7284 22.6751 15.172 21.4892 14.0091C18.0663 10.6476 14.1583 6.49578 14.1583 6.49578C14.1583 6.49578 18.0477 5.85756 20.5285 8.00389C23.1763 10.2933 24.3367 12.2239 26.4577 12.4714C26.1955 5.53731 20.38 0 13.2347 0C5.92694 0 0 5.79851 0 12.9529C0 20.1097 5.92694 25.9059 13.2347 25.9059C15.0007 25.9059 16.2817 25.6265 17.8249 25.0088C15.6551 24.6976 13.0838 24.8634 9.25476 19.8689Z" fill="white"/>
</svg>